<svg xmlns="http://www.w3.org/2000/svg" xmlns:lucid="lucid" width="160" height="160"><g transform="translate(-20 20)" lucid:page-tab-id="0_0"><path d="M37.8 0h125.98v122.83H37.8z" fill-opacity="0"/><path d="M40 0h120v120H40V0z" stroke="#000" stroke-opacity="0" fill="url(#a)"/><path d="M116.92 69.38v22.47c0 1.04-.9 1.87-1.9 1.87H84.98c-1 0-1.8-.83-1.8-1.87V69.38c0-1.05.8-1.88 1.8-1.88h1.9V60c0-5.68 6.52-11.23 13.13-11.23 3.06 0 6.28 1.18 8.92 3.33 2.64 2.22 4.2 5.14 4.2 7.9v7.5h1.9c1 0 1.9.83 1.9 1.88zm24.36-5.62c0 4.44-1.32 8.04-3.96 10.68-4.46 4.3-10.82 4.3-11.07 4.3h-5.6V75h5.6c.17 0 5.12-.08 8.43-3.27 1.9-1.87 2.88-4.58 2.88-7.97 0-10.9-10.4-12.97-11.55-13.18-.5-.07-.9-.35-1.23-.77-.25-.4-.4-.96-.25-1.44.74-3.75-1.57-6.24-4.05-7.35-2.4-1.1-5.86-1.1-7.67 1.4-.42.55-1.16.83-1.82.7-.66-.08-1.24-.57-1.5-1.2-1.22-3.53-3.04-6.58-5.2-8.66-5.35-5.4-12.78-6.6-20.46-3.4-6.36 2.7-11.97 10.6-11.97 16.85v1.03c0 .63-.1 1.53 0 1.95.08.97-.5 1.8-1.4 2.08h-.1c-3.95 1.04-7.83 3.2-7.83 11.3v.5s-.1.06-.1.13c.02.27.02.54.1.68.33 6.1 4.54 10 11.4 10.6h5.44v3.76h-5.6c-9-.83-14.55-6.1-15.04-14.08V63.06c0-7.63 3.05-12.4 9.33-14.56 0-.28 0-.63.08-.9v-.9c0-7.84 6.36-16.93 14.3-20.26 8.98-3.8 18.15-2.3 24.5 4.1 2 2 3.72 4.57 5.04 7.48 2.73-1.73 6.52-2 10-.4 4.2 1.8 6.5 5.47 6.43 9.7 5.45 1.52 12.88 6.24 12.88 16.44zm-28.15 26.2v-3.73h-3.72v-3.75h3.73v-3.74h-3.72V75h3.73v-3.75H86.87v18.72zM90.6 67.5h18.8V60c0-1.65-1.06-3.53-2.88-4.98-1.9-1.6-4.37-2.5-6.52-2.5-4.46 0-9.4 3.88-9.4 7.5zm14.6 10.55c0 2.2-1.4 4.1-3.3 4.78v5.27h-3.8v-5.27c-1.9-.7-3.3-2.57-3.3-4.78 0-2.85 2.3-5.14 5.2-5.14 2.9 0 5.2 2.3 5.2 5.14zm-6.6 0c0 .76.66 1.45 1.4 1.45.83 0 1.4-.7 1.4-1.45 0-.77-.57-1.4-1.4-1.4-.74 0-1.4.63-1.4 1.4z" stroke="#000" stroke-opacity="0" fill="#fff"/><defs><linearGradient gradientUnits="userSpaceOnUse" id="a" x1="40" y1="120" x2="160"><stop offset="0%" stop-color="#4d27a8"/><stop offset="100%" stop-color="#a166ff"/></linearGradient></defs></g></svg>